<svg width="64" height="64" viewBox="0 0 64 64" fill="none" xmlns="http://www.w3.org/2000/svg">
  <!-- Background circle -->
  <circle cx="32" cy="32" r="30" fill="#000000" stroke="#FFFFFF" stroke-width="2"/>
  
  <!-- Straw Hat -->
  <ellipse cx="32" cy="28" rx="18" ry="12" fill="#D4AF37" stroke="#B8860B" stroke-width="1"/>
  <ellipse cx="32" cy="32" rx="20" ry="8" fill="#D4AF37" stroke="#B8860B" stroke-width="1"/>
  
  <!-- Hat band -->
  <ellipse cx="32" cy="30" rx="16" ry="6" fill="#8B4513" stroke="#654321" stroke-width="1"/>
  
  <!-- Crossbones -->
  <!-- First bone -->
  <ellipse cx="20" cy="40" rx="8" ry="3" fill="#FFFFFF" transform="rotate(-30 20 40)"/>
  <ellipse cx="20" cy="40" rx="3" ry="8" fill="#FFFFFF" transform="rotate(-30 20 40)"/>
  
  <!-- Second bone -->
  <ellipse cx="44" cy="40" rx="8" ry="3" fill="#FFFFFF" transform="rotate(30 44 40)"/>
  <ellipse cx="44" cy="40" rx="3" ry="8" fill="#FFFFFF" transform="rotate(30 44 40)"/>
  
  <!-- Skull -->
  <ellipse cx="32" cy="45" rx="12" ry="10" fill="#FFFFFF"/>
  <ellipse cx="28" cy="42" rx="2" ry="2" fill="#000000"/>
  <ellipse cx="36" cy="42" rx="2" ry="2" fill="#000000"/>
  <path d="M28 48 Q32 52 36 48" stroke="#000000" stroke-width="2" fill="none"/>
</svg>
