<svg width="48" height="48" viewBox="0 0 48 48" fill="none" xmlns="http://www.w3.org/2000/svg">
  <!-- Snail shell -->
  <ellipse cx="24" cy="24" rx="16" ry="20" fill="#8B4513" stroke="#654321" stroke-width="2"/>
  
  <!-- Shell spiral -->
  <path d="M24 4 Q32 8 28 16 Q24 20 20 16 Q16 12 20 8 Q24 4 24 4" stroke="#654321" stroke-width="2" fill="none"/>
  <path d="M20 8 Q28 12 24 20 Q20 24 16 20 Q12 16 16 12 Q20 8 20 8" stroke="#654321" stroke-width="1" fill="none"/>
  
  <!-- Snail body -->
  <ellipse cx="24" cy="32" rx="8" ry="12" fill="#FFB6C1" stroke="#FF69B4" stroke-width="1"/>
  
  <!-- Eyes -->
  <circle cx="20" cy="28" r="2" fill="#000000"/>
  <circle cx="28" cy="28" r="2" fill="#000000"/>
  <circle cx="21" cy="27" r="1" fill="#FFFFFF"/>
  <circle cx="29" cy="27" r="1" fill="#FFFFFF"/>
  
  <!-- Eye stalks -->
  <line x1="20" y1="28" x2="18" y2="24" stroke="#FFB6C1" stroke-width="2" stroke-linecap="round"/>
  <line x1="28" y1="28" x2="30" y2="24" stroke="#FFB6C1" stroke-width="2" stroke-linecap="round"/>
  
  <!-- Antennae -->
  <circle cx="18" cy="24" r="1" fill="#000000"/>
  <circle cx="30" cy="24" r="1" fill="#000000"/>
  
  <!-- Mouth -->
  <path d="M22 36 Q24 38 26 36" stroke="#000000" stroke-width="1" fill="none"/>
</svg>
